<svg width="25" height="35" viewBox="0 0 25 35" fill="none" xmlns="http://www.w3.org/2000/svg">
<path d="M22.7421 17.5552C21.5539 17.2062 20.3212 17.6501 19.6104 18.5774C19.8259 17.3234 19.9051 16.0497 19.8497 14.7823L21.2752 14.7915C22.8829 14.8018 24.1947 13.5066 24.205 11.8989L22.4363 11.8875C21.2457 11.88 20.2176 12.5882 19.76 13.6093C19.627 12.3953 19.3703 11.1949 18.9919 10.0309L20.4462 9.62403C21.9945 9.1908 22.8986 7.58415 22.4652 6.03583L20.7618 6.51254C19.5614 6.84842 18.7485 7.88959 18.6457 9.06205C18.1861 7.88687 17.5982 6.75752 16.8844 5.69918L18.2763 4.84173C19.6451 3.99833 20.0713 2.20503 19.2279 0.836171L17.722 1.76383C16.5637 2.47733 16.0805 3.87077 16.4699 5.11207C15.9417 4.39644 15.353 3.71727 14.7044 3.08316C15.1709 2.57973 15.2681 1.7414 14.6727 1.15469C13.9139 0.407254 12.681 -0.203059 10.7093 0.0637702C10.7093 0.0637702 10.7093 1.49135 12.3172 2.9158C12.6526 3.21287 13.0214 3.38451 13.39 3.47325C13.8527 3.58464 14.265 3.46156 14.5673 3.21287C15.0792 3.73248 15.5574 4.28447 15.9987 4.86416C15.0778 4.23084 13.8328 4.15964 12.8201 4.78361L11.3141 5.71127C12.1575 7.08014 13.9508 7.50633 15.3197 6.66293L16.6791 5.82537C16.7336 5.90808 16.7875 5.99137 16.8403 6.07504C17.4319 6.98846 17.9224 7.95904 18.3129 8.96764C17.6002 8.12288 16.4354 7.72322 15.3017 8.04056L13.5984 8.51727C14.0315 10.0655 15.6382 10.9696 17.1865 10.5362L18.7079 10.1104C19.043 11.2071 19.2657 12.3383 19.3771 13.4809C18.9065 12.5203 17.9222 11.8561 16.78 11.8488L15.0113 11.8374C15.001 13.4452 16.2961 14.7569 17.9039 14.7673L19.456 14.7772C19.4807 15.811 19.4156 16.8471 19.2611 17.8688C18.9768 16.9793 18.2706 16.2421 17.3073 15.9593L15.6101 15.4609C15.157 17.0035 16.0404 18.6215 17.583 19.0746L18.9414 19.4735C18.6902 20.4854 18.3483 21.4735 17.9162 22.4205C17.9316 21.4406 17.4519 20.476 16.5635 19.9131L15.0697 18.9662C14.2089 20.3243 14.612 22.1229 15.9701 22.9836L17.2194 23.7755C16.6205 24.8156 15.9026 25.7894 15.0665 26.671C14.9581 26.7871 14.8479 26.901 14.7357 27.0131C15.454 25.938 15.3885 24.4744 14.4893 23.4629L13.3141 22.1408C12.1124 23.2089 12.0042 25.0492 13.0723 26.2509L14.2007 27.5203C13.3713 28.2674 12.4563 28.9147 11.4811 29.4548C12.1084 28.6143 12.2591 27.4627 11.7739 26.4518L11.0086 24.857C9.55903 25.5526 8.94774 27.2917 9.64334 28.7413L10.2737 30.0552C9.03789 30.6029 7.72889 30.9877 6.39162 31.1948C6.05711 31.2447 5.70231 31.2941 5.36077 31.3308C3.29831 31.5647 1.6355 32.1211 0 33.4412L0.543996 34.1212C0.896061 33.8357 1.25963 33.5702 1.6396 33.3375C2.79722 32.6133 4.09899 32.293 5.4624 32.1092C7.2436 31.9058 8.97329 31.4278 10.5767 30.6864L11.2464 32.0823C11.942 33.5319 13.6811 34.1432 15.1307 33.4477L14.3655 31.853C13.8322 30.7415 12.6855 30.1228 11.5262 30.2083C12.6381 29.6007 13.6769 28.8587 14.6149 27.9865L15.5342 29.0206C16.6023 30.2224 18.4427 30.3306 19.6444 29.2625L18.4692 27.9404C17.7083 27.0844 16.5557 26.7834 15.5213 27.067C16.3412 26.1559 17.0427 25.1755 17.6281 24.1455L18.8116 24.8957C20.1698 25.7564 21.9683 25.3532 22.8291 23.9952L21.3353 23.0482C20.343 22.4193 19.1158 22.4651 18.1908 23.0652C18.7204 21.9525 19.1234 20.793 19.4011 19.6087L20.8254 20.0268C22.368 20.4799 23.9859 19.5965 24.4391 18.0539L22.7421 17.5552Z" fill="white"/>
</svg>
