<svg width="25" height="35" viewBox="0 0 25 35" fill="none" xmlns="http://www.w3.org/2000/svg">
<path d="M23.237 32.6091C21.7406 31.6985 20.0901 31.4332 18.3871 31.2447C17.7118 31.1498 17.0266 31.0137 16.3692 30.835C15.6148 30.6343 14.8772 30.3735 14.1638 30.0573L14.7954 28.7409C15.491 27.2913 14.8797 25.5522 13.43 24.8567L12.6648 26.4514C12.1792 27.4635 12.3308 28.6167 12.9598 29.4574C11.9844 28.9156 11.0693 28.2654 10.2394 27.5185L11.3664 26.2505C12.4345 25.0488 12.3264 23.2087 11.1246 22.1404L9.94938 23.4624C9.0517 24.4724 8.98502 25.9331 9.69988 27.0077C9.58912 26.8971 9.47962 26.7849 9.37237 26.6707C8.53913 25.7918 7.82174 24.8165 7.22215 23.7736L8.46871 22.9834C9.82684 22.1227 10.23 20.3241 9.36922 18.966L7.87537 19.9129C6.98964 20.4742 6.51021 21.4347 6.52269 22.4117C6.09241 21.4677 5.75049 20.4821 5.49828 19.4733L6.85604 19.0746C8.39869 18.6215 9.28204 17.0037 8.82897 15.4609L7.13184 15.9593C6.16653 16.2426 5.45947 16.9823 5.17645 17.874C5.01905 16.8497 4.95117 15.8115 4.97477 14.7775L6.53518 14.7675C8.14298 14.7571 9.43814 13.4455 9.4278 11.8376L7.65906 11.8489C6.50553 11.8563 5.51311 12.5336 5.04811 13.5094C5.15559 12.3547 5.38788 11.215 5.73333 10.1111L7.25257 10.5362C8.80088 10.9694 10.4074 10.0656 10.8408 8.51727L9.13736 8.04056C8.01386 7.72615 6.85994 8.11586 6.14566 8.94483C6.57633 7.8543 7.11897 6.80785 7.76185 5.82674L9.11945 6.66293C10.4882 7.50633 12.2817 7.08014 13.125 5.71127L11.619 4.78361C10.6063 4.15984 9.36148 4.23084 8.44082 4.86397C8.88086 4.2833 9.35815 3.73073 9.86957 3.21111C10.1721 3.46116 10.5854 3.58482 11.0491 3.47325C11.4177 3.38451 11.7868 3.21287 12.1218 2.9158C13.7302 1.49135 13.7302 0.0637702 13.7302 0.0637702C11.7582 -0.203059 10.5253 0.407254 9.76682 1.15469C9.17128 1.7414 9.26863 2.57954 9.73479 3.08316C9.08643 3.71727 8.49777 4.39624 7.96958 5.11188C8.35871 3.87077 7.87557 2.47733 6.71735 1.76403L5.21137 0.836367C4.36797 2.20523 4.79416 3.99873 6.16302 4.84193L7.55471 5.69937C6.84101 6.75791 6.25293 7.88726 5.79339 9.06241C5.69061 7.88999 4.87763 6.84881 3.67729 6.51293L1.97391 6.03623C1.54071 7.58454 2.44458 9.19098 3.99289 9.62439L5.44719 10.0314C5.06879 11.1955 4.8121 12.3961 4.67908 13.61C4.22148 12.589 3.19337 11.8805 2.00259 11.8882L0.233866 11.8994C0.244204 13.5073 1.55592 14.8024 3.16372 14.792L4.58935 14.7829C4.53415 16.0503 4.61295 17.324 4.82868 18.578C4.11791 17.6506 2.88519 17.2066 1.69694 17.5555L0 18.0537C0.453103 19.5964 2.07085 20.4797 3.61371 20.0266L5.03797 19.6084C5.31553 20.7926 5.7185 21.9522 6.24806 23.0647C5.32313 22.465 4.09588 22.4192 3.10384 23.0478L1.60995 23.9947C2.4707 25.3529 4.26928 25.7561 5.62741 24.8953L6.81098 24.1452C7.39632 25.1752 8.09812 26.1557 8.91791 27.0666C7.88337 26.783 6.73081 27.0839 5.97012 27.94L4.79493 29.2621C5.99664 30.3302 7.83675 30.2222 8.90505 29.0202L9.82432 27.9861C10.7568 28.8525 11.7985 29.5972 12.9143 30.208C11.7546 30.122 10.6071 30.7408 10.0736 31.8525L9.3084 33.4473C10.758 34.1429 12.4971 33.5316 13.1926 32.082L13.862 30.6867C15.1506 31.2846 16.5195 31.7119 17.9201 31.9522C18.253 32.0076 18.6519 32.0701 18.9765 32.109C20.8759 32.3499 22.4228 32.886 23.8951 34.1208L24.4391 33.4409C24.0591 33.1421 23.6599 32.8593 23.237 32.6091Z" fill="white"/>
</svg>
